<?xml version="1.0" encoding="utf-8"?>
<!-- Generator: Adobe Illustrator 18.1.1, SVG Export Plug-In . SVG Version: 6.00 Build 0)  -->
<!DOCTYPE svg PUBLIC "-//W3C//DTD SVG 1.1//EN" "http://www.w3.org/Graphics/SVG/1.1/DTD/svg11.dtd">
<svg version="1.1" xmlns="http://www.w3.org/2000/svg" xmlns:xlink="http://www.w3.org/1999/xlink" x="0px" y="0px"
	 viewBox="0 0 200 200" enable-background="new 0 0 200 200" xml:space="preserve">
<g id="Layer_2" display="none">
	<g display="inline">
		<path fill="none" stroke="#046291" stroke-width="4" stroke-linecap="round" stroke-linejoin="round" stroke-miterlimit="10" d="
			M47.3,143h107c0,0-11.5,23-20.9,23c-10.4,0-55.9,0-65.1,0C57.5,166,46,143,46,143H47.3z"/>
		
			<polygon fill="none" stroke="#046291" stroke-width="4" stroke-linecap="round" stroke-linejoin="round" stroke-miterlimit="10" points="
			106,33.8 106,132 45.7,132 		"/>
		
			<polygon fill="none" stroke="#046291" stroke-width="4" stroke-linecap="round" stroke-linejoin="round" stroke-miterlimit="10" points="
			120,73.1 120,132 153.7,132 		"/>
	</g>
</g>
<g id="Layer_3" display="none">
	
		<path display="inline" fill="none" stroke="#046291" stroke-width="4" stroke-linecap="round" stroke-linejoin="round" stroke-miterlimit="10" d="
		M22.2,158.5C40,111,70,62,119,42c9,16,18,31,27.2,47.1"/>
	<g display="inline">
		<path fill="none" stroke="#046291" stroke-width="4" stroke-linecap="round" stroke-linejoin="round" stroke-miterlimit="10" d="
			M169,128.5l-50.2-87c-68.4,28.1-96.5,117-96.5,117"/>
		
			<circle fill="#FFFFFF" stroke="#046291" stroke-width="2" stroke-linecap="round" stroke-linejoin="round" stroke-miterlimit="10" cx="152.5" cy="99.6" r="3"/>
		<path fill="none" stroke="#046291" stroke-width="2" stroke-linecap="round" stroke-linejoin="round" stroke-miterlimit="10" d="
			M35.5,129c0,0,17.5-7,15.2-26.4c0,0,20.8-5.6,16.9-23.7c0,0,22.4-0.9,24.3-22.1c0,0,21.1,3.7,26.9-15.3"/>
		
			<circle fill="#FFFFFF" stroke="#046291" stroke-width="2" stroke-linecap="round" stroke-linejoin="round" stroke-miterlimit="10" cx="94.4" cy="58.2" r="3"/>
		
			<circle fill="#FFFFFF" stroke="#046291" stroke-width="2" stroke-linecap="round" stroke-linejoin="round" stroke-miterlimit="10" cx="70.3" cy="81.1" r="3"/>
		
			<circle fill="#FFFFFF" stroke="#046291" stroke-width="2" stroke-linecap="round" stroke-linejoin="round" stroke-miterlimit="10" cx="51.9" cy="104.3" r="3"/>
	</g>
	
		<path display="inline" fill="none" stroke="#046291" stroke-width="2" stroke-linecap="round" stroke-linejoin="round" stroke-miterlimit="10" d="
		M177.8,117.6c-1.3-1.1-2.7-2.1-4-3.2c0.3,0.6,0.7,1.1,1.1,1.6c-0.2-0.6-0.5-1.2-1.1-1.6c1.1,4.1,6,9.9,0.6,13.7
		c0,0-3.9,2.7-6.1-0.7"/>
</g>
<g id="Layer_4">
	<g>
		
			<line fill="none" stroke="#046291" stroke-width="4" stroke-linecap="round" stroke-miterlimit="10" x1="44.3" y1="25.1" x2="141.4" y2="147.9"/>
		
			<line fill="none" stroke="#046291" stroke-width="4" stroke-linecap="round" stroke-linejoin="round" stroke-miterlimit="10" x1="47.1" y1="22.6" x2="40.7" y2="27.3"/>
		<path fill="none" stroke="#046291" stroke-width="4" stroke-linecap="round" stroke-linejoin="round" stroke-miterlimit="10" d="
			M145.2,174c0,0,11.8-2.9,19.9-14.3c0,0-17.1-30.5-32.1-22.3C133,137.4,119.6,148.2,145.2,174z"/>
	</g>
	<g>
		
			<line fill="none" stroke="#046291" stroke-width="4" stroke-linecap="round" stroke-miterlimit="10" x1="161.6" y1="25.1" x2="64.4" y2="147.9"/>
		
			<line fill="none" stroke="#046291" stroke-width="4" stroke-linecap="round" stroke-linejoin="round" stroke-miterlimit="10" x1="158.7" y1="22.6" x2="165.1" y2="27.3"/>
		<path fill="none" stroke="#046291" stroke-width="4" stroke-linecap="round" stroke-linejoin="round" stroke-miterlimit="10" d="
			M60.6,174c0,0-11.8-2.9-19.9-14.3c0,0,17.1-30.5,32.1-22.3C72.8,137.4,86.2,148.2,60.6,174z"/>
	</g>
</g>
</svg>
