<?xml version="1.0" encoding="utf-8"?>
<!-- Generator: Adobe Illustrator 16.0.4, SVG Export Plug-In . SVG Version: 6.00 Build 0)  -->
<!DOCTYPE svg PUBLIC "-//W3C//DTD SVG 1.1//EN" "http://www.w3.org/Graphics/SVG/1.1/DTD/svg11.dtd">
<svg version="1.1" id="Layer_1" xmlns="http://www.w3.org/2000/svg" xmlns:xlink="http://www.w3.org/1999/xlink" x="0px" y="0px"
	 width="288.622px" height="107.489px" viewBox="0 0 288.622 107.489" enable-background="new 0 0 288.622 107.489"
	 xml:space="preserve">
<path fill="#69903D" d="M7.703,92.907c-1.984-2.855-3.14-5.443-3.14-5.443s3.125-23.369,23.054-44.375
	C47.547,22.083,70.707,3.231,70.707,3.231s-25.79,23.385-38.302,36.714C3.516,70.717,12.1,97.513,12.1,97.513
	S9.687,95.761,7.703,92.907z"/>
<path fill="#69903D" d="M0.167,74.694c0,0,27.989-32.144,44.147-34.298s55.124,12.639,55.124,12.639s-46.858-10.236-57.817-5.098
	C24.386,56.016,1.764,80.792,1.764,80.792L0.167,74.694z"/>
<path fill="#69903D" d="M-0.121,68.943c0,0,33.125-35.01,35.817-42.012C38.39,19.929,41.083,0,41.083,0s1.578,16.919-3.771,26.393
	C32.811,34.366-0.39,71.098-0.39,71.098L-0.121,68.943z"/>
<path fill="#69903D" d="M44.477,27.435c0.602,0.857,1.949,0.99,2.527,0.386c0.578-0.606,19.31-16.295,16.735-18.752
	c-2.73-2.606-18.45,15.09-19.317,15.999C43.554,25.975,43.864,26.56,44.477,27.435z"/>
<g>
	<path fill="#69903D" d="M71.339,37.132c-3.558-6.697-8.776-10.565-16.521-9.728c-7.745,0.838-23.526,16.97-23.042,16.519
		c2.931-2.721,8.682-6.18,21.135-4.955c8.26,0.813,24.881,7.357,24.881,7.357S74.473,43.031,71.339,37.132z M61.124,38.405
		c-1.459-0.338-2.733-1.144-2.733-1.144s0.795-0.335,2.262-0.812c1.466-0.476,3.425,1.606,3.425,1.606S62.584,38.741,61.124,38.405z
		"/>
</g>
<path fill="#00507E" d="M39.94,51.25c0,0-4.731,7.036,12.56,10.885c6.974,1.552,22.469,2.493,13.692,4.353
	c-11.528,2.444-34.477-3.198-42.177,0.522c-4.483,2.166-7.31,6.011-7.31,6.011s1.954-8.45,9.49-10.544
	c7.536-2.092,26.26,2.728,25.716,2.027c-0.925-1.189-17.526-2.112-17.996-6.812C33.452,53.059,39.94,51.25,39.94,51.25z"/>
<path fill="#69903D" d="M28.106,20.92c0,0-4.901,15.863-11.848,26.647C10.933,55.837,0,65.369,0,65.369s0.037,0.182,0.16-1.525
	c0.124-1.706,0.464-2.316,0.464-2.316s7.72-6.639,12.647-13.324C18.624,40.944,28.106,20.92,28.106,20.92z"/>
<g>
	<path fill="#00507E" d="M48.487,57.976c7.536,3.559,23.527,3.931,28,4.389c0.656,0.066,1.213,0.165,1.699,0.284
		c-0.259-1.655-0.629-3.273-1.087-4.854c-4.691,0.991-12.083,0.537-17.707-0.566c-14.962-2.937-15.691-8.362-15.691-8.362
		S40.692,54.295,48.487,57.976z"/>
	<path fill="#00507E" d="M78.595,66.489c-2.602,1.612-7.815,3.068-14.513,3.068c-13.757,0-28.484-3.281-37.889,0.063
		c-9.131,3.247-15.26,18.735-6.411,29.795c9.351,11.689,31.229,9.066,41.297,2.322c0.048-0.033,0.098-0.064,0.146-0.098
		c0.215-0.145,0.428-0.295,0.64-0.443c0.086-0.062,0.173-0.123,0.26-0.186c0.191-0.137,0.38-0.275,0.569-0.416
		c0.105-0.08,0.211-0.158,0.316-0.24c0.175-0.131,0.346-0.264,0.518-0.398c0.121-0.094,0.24-0.189,0.359-0.287
		c0.156-0.125,0.313-0.252,0.468-0.379l0.813-0.693c0.223-0.197,0.444-0.396,0.663-0.598c0.073-0.066,0.145-0.131,0.216-0.199
		c0.236-0.221,0.472-0.445,0.704-0.672c0.077-0.074,0.151-0.15,0.227-0.227c0.186-0.186,0.37-0.369,0.553-0.559
		c0.081-0.084,0.161-0.168,0.241-0.254c0.175-0.184,0.35-0.371,0.522-0.559c0.077-0.084,0.153-0.17,0.23-0.254
		c0.089-0.1,0.177-0.201,0.266-0.303c-1.984-3.02-6.805-5.16-11.596-6.248c-7.375-1.674-35.013,1.443-33.756-9.088
		c1.858-15.567,23.95-2.353,41.576-0.75c5.096,0.463,11.472-1.819,12.905-2.42c0.487-2.472,0.75-5.022,0.75-7.636
		C78.669,68.043,78.64,67.264,78.595,66.489z M54.629,92.241c0.938,0,1.697,0.691,1.697,1.545c0,0.852-0.76,1.543-1.697,1.543
		c-0.938,0-1.699-0.691-1.699-1.543C52.93,92.933,53.691,92.241,54.629,92.241z"/>
	<path fill="#00507E" d="M50.989,79.89c-19.96-8.315-25.911-2.624-22.807,3.068c0,0,3.96-4.039,11.125-2.846
		c3.767,0.629,11.272,6.189,20.085,6.297c13.808,0.172,16.912-6.037,16.912-6.037C69.687,83.767,60.56,83.876,50.989,79.89z"/>
</g>
<g>
	<path fill="#69903D" d="M102.425,76.503c-3.787,0-5.559-2.855-5.559-5.966c0-2.528,0.975-5.265,2.65-7.029
		c1.281-1.316,3.148-2.144,5.061-2.144c3.945,0,5.543,2.872,5.543,6.01c0,2.48-0.898,5.2-2.525,6.925
		c-1.314,1.388-3.088,2.204-5.148,2.204H102.425z M102.669,74.978c3.122,0,5.531-3.986,5.531-7.526c0-2.078-0.684-4.563-3.884-4.563
		c-3.299,0-5.574,4.137-5.574,7.506c0,2.383,1.058,4.583,3.905,4.583H102.669z"/>
	<path fill="#69903D" d="M115.609,63.222l-0.479,2.523h2.514l-0.281,1.412h-2.516l-0.969,5.11c-0.114,0.588-0.21,1.131-0.21,1.679
		c0,0.628,0.299,1.02,0.996,1.02c0.324-0.003,0.615-0.022,0.851-0.084l-0.087,1.419c-0.322,0.125-0.871,0.192-1.396,0.192
		c-1.591,0-2.214-0.965-2.214-2.042c0-0.612,0.078-1.212,0.23-1.974l1.027-5.32h-1.505l0.272-1.412h1.51l0.367-1.947L115.609,63.222
		z"/>
	<path fill="#69903D" d="M122.425,63.222l-0.481,2.523h2.514l-0.281,1.412h-2.515l-0.97,5.11c-0.114,0.588-0.208,1.131-0.208,1.679
		c0,0.628,0.298,1.02,0.994,1.02c0.325-0.003,0.615-0.022,0.851-0.084l-0.087,1.419c-0.32,0.125-0.869,0.192-1.395,0.192
		c-1.59,0-2.215-0.965-2.215-2.042c0-0.612,0.078-1.212,0.231-1.974l1.026-5.32h-1.504l0.272-1.412h1.511l0.366-1.947
		L122.425,63.222z"/>
	<path fill="#69903D" d="M131.591,76.264c-0.008-0.634,0.1-1.629,0.234-2.718h-0.047c-1.146,2.185-2.598,2.958-4.082,2.958
		c-1.863,0-3.025-1.481-3.025-3.476c0-3.666,2.696-7.522,7.272-7.522c1.009,0,2.11,0.172,2.83,0.399l-1.054,5.483
		c-0.349,1.831-0.494,3.71-0.447,4.876H131.591z M132.741,67.091c-0.252-0.082-0.632-0.149-1.241-0.149
		c-2.724,0-4.946,2.833-4.958,5.76c-0.008,1.176,0.407,2.322,1.795,2.322c1.512,0,3.289-1.961,3.808-4.758L132.741,67.091z"/>
	<path fill="#69903D" d="M138.441,65.745l0.371,5.915c0.08,1.301,0.074,1.975,0.051,2.83h0.051c0.252-0.686,0.629-1.589,1.154-2.64
		l3.131-6.105h1.57l0.662,5.993c0.107,1.158,0.182,2.053,0.166,2.752h0.053c0.281-0.847,0.57-1.661,0.996-2.669l2.84-6.076h1.838
		l-5.199,10.519h-1.678l-0.693-5.716c-0.102-0.975-0.158-1.871-0.152-2.8h-0.047c-0.441,1.014-0.74,1.814-1.221,2.746l-3.013,5.77
		h-1.689l-0.969-10.519H138.441z"/>
	<path fill="#69903D" d="M158.325,76.264c-0.006-0.634,0.1-1.629,0.236-2.718h-0.049c-1.145,2.185-2.598,2.958-4.08,2.958
		c-1.867,0-3.025-1.481-3.025-3.476c0-3.666,2.697-7.522,7.271-7.522c1.008,0,2.111,0.172,2.83,0.399l-1.053,5.483
		c-0.35,1.831-0.494,3.71-0.445,4.876H158.325z M159.478,67.091c-0.254-0.082-0.635-0.149-1.242-0.149
		c-2.723,0-4.947,2.833-4.959,5.76c-0.008,1.176,0.406,2.322,1.797,2.322c1.51,0,3.287-1.961,3.807-4.758L159.478,67.091z"/>
</g>
<g>
	<path fill="#69903D" d="M202.61,95.138c-3.59,0-5.268-2.705-5.268-5.655c0-2.395,0.924-4.989,2.512-6.663
		c1.215-1.246,2.982-2.03,4.797-2.03c3.74,0,5.254,2.723,5.254,5.697c0,2.351-0.854,4.927-2.395,6.563
		c-1.244,1.314-2.926,2.088-4.879,2.088H202.61z M202.845,93.692c2.957,0,5.238-3.777,5.238-7.135c0-1.969-0.645-4.324-3.682-4.324
		c-3.123,0-5.281,3.922-5.281,7.115c0,2.258,1.004,4.344,3.701,4.344H202.845z"/>
	<path fill="#69903D" d="M220.427,84.94l-1.344,7.068c-0.211,1.109-0.35,2.076-0.445,2.902h-1.543l0.258-1.883l-0.039-0.002
		c-0.889,1.301-2.201,2.111-3.521,2.111c-1.279,0-2.631-0.619-2.631-2.887c0-0.479,0.061-1.018,0.191-1.678l1.078-5.633h1.705
		l-1.057,5.557c-0.107,0.557-0.17,1.035-0.17,1.465c0,1.027,0.42,1.734,1.59,1.734c1.248,0,2.836-1.455,3.248-3.643l0.977-5.113
		H220.427z"/>
	<path fill="#69903D" d="M225.956,82.55l-0.455,2.391h2.383l-0.27,1.339h-2.381l-0.916,4.843c-0.109,0.558-0.199,1.072-0.199,1.593
		c0,0.596,0.283,0.966,0.945,0.966c0.305-0.002,0.58-0.021,0.801-0.078l-0.08,1.345c-0.305,0.116-0.824,0.181-1.322,0.181
		c-1.506,0-2.1-0.914-2.1-1.935c0-0.58,0.072-1.149,0.221-1.872l0.971-5.042h-1.426l0.26-1.339h1.434l0.344-1.844L225.956,82.55z"/>
	<path fill="#69903D" d="M234.646,94.911c-0.006-0.6,0.094-1.543,0.223-2.576h-0.045c-1.086,2.07-2.461,2.803-3.869,2.803
		c-1.766,0-2.867-1.402-2.867-3.294c0-3.475,2.553-7.13,6.895-7.13c0.953,0,1.998,0.164,2.678,0.377l-0.998,5.199
		c-0.33,1.734-0.467,3.517-0.422,4.621H234.646z M235.735,86.217c-0.238-0.078-0.598-0.142-1.174-0.142
		c-2.584,0-4.691,2.686-4.701,5.46c-0.01,1.112,0.385,2.2,1.701,2.2c1.432,0,3.117-1.859,3.609-4.512L235.735,86.217z"/>
	<path fill="#69903D" d="M242.798,95.138c-2.498,0-3.896-1.852-3.896-4.094c0-3.294,2.287-6.33,5.533-6.33
		c2.686,0,3.902,2.035,3.902,4.146c0,3.081-2.186,6.278-5.521,6.278H242.798z M243.011,93.783c2.01,0,3.541-2.607,3.541-4.927
		c0-1.162-0.539-2.789-2.324-2.789c-2.158,0-3.58,2.624-3.58,4.908c0,1.619,0.9,2.808,2.342,2.808H243.011z"/>
	<path fill="#69903D" d="M259.274,84.94l-1.346,7.068c-0.209,1.109-0.35,2.076-0.443,2.902h-1.541l0.258-1.883l-0.043-0.002
		c-0.889,1.301-2.199,2.111-3.518,2.111c-1.281,0-2.633-0.619-2.633-2.887c0-0.479,0.062-1.018,0.189-1.678l1.08-5.633h1.705
		l-1.061,5.557c-0.105,0.557-0.168,1.035-0.168,1.465c0,1.027,0.422,1.734,1.592,1.734c1.248,0,2.836-1.455,3.248-3.643l0.975-5.113
		H259.274z"/>
	<path fill="#69903D" d="M267.03,94.911c-0.008-0.6,0.094-1.543,0.225-2.576h-0.043c-1.088,2.07-2.465,2.803-3.871,2.803
		c-1.77,0-2.867-1.402-2.867-3.294c0-3.475,2.557-7.13,6.893-7.13c0.957,0,1.998,0.164,2.682,0.377l-0.998,5.199
		c-0.33,1.734-0.469,3.517-0.422,4.621H267.03z M268.122,86.217c-0.236-0.078-0.602-0.142-1.176-0.142
		c-2.58,0-4.689,2.686-4.699,5.46c-0.006,1.112,0.387,2.2,1.701,2.2c1.432,0,3.113-1.859,3.609-4.512L268.122,86.217z"/>
	<path fill="#69903D" d="M271.163,94.911l1.904-9.971h1.707l-1.904,9.971H271.163z M274.358,83.087c-0.6,0-1.014-0.477-1.01-1.114
		c0.014-0.681,0.537-1.209,1.18-1.209c0.639,0,1.062,0.471,1.062,1.118c-0.02,0.713-0.527,1.205-1.209,1.205H274.358z"/>
	<path fill="#69903D" d="M275.962,93.179c0.469,0.281,1.322,0.621,2.141,0.62c1.152-0.001,1.9-0.745,1.9-1.628
		c0-0.779-0.352-1.266-1.387-1.838c-1.154-0.645-1.803-1.52-1.803-2.542c0-1.741,1.512-3.077,3.613-3.077
		c0.904,0,1.703,0.243,2.076,0.494l-0.479,1.293c-0.344-0.201-0.973-0.454-1.721-0.454c-1.043,0-1.779,0.647-1.779,1.497
		c0,0.732,0.48,1.178,1.373,1.674c1.109,0.623,1.861,1.504,1.861,2.625c0,2.094-1.705,3.293-3.807,3.285
		c-1.072-0.009-2.027-0.338-2.479-0.686L275.962,93.179z"/>
</g>
<g>
	<path fill="#00507E" d="M174.038,76.142l-3.447-5.501h-0.32v4.013c0.433,0.038,0.886,0.113,1.3,0.226v1.262h-4.974v-1.244
		c0.489-0.113,1.073-0.207,1.639-0.245v-9.741c-0.565-0.038-1.149-0.132-1.639-0.245v-1.244h1.469c0.49,0,2.017-0.075,3.562-0.075
		c2.638,0,4.446,0.923,4.446,3.448c0,1.922-1.395,3.184-3.354,3.486c0.264,0.32,0.527,0.697,0.754,1.055l2.204,3.297
		c0.396,0.057,0.866,0.132,1.356,0.226v1.281H174.038z M171.344,65.025c-0.396,0-0.772,0.019-1.073,0.038v4.032
		c0.188,0.019,0.546,0.038,0.998,0.038c1.658,0,2.657-0.848,2.657-2.11C173.926,65.628,173.059,65.025,171.344,65.025z"/>
	<path fill="#00507E" d="M177.882,76.142v-1.244c0.49-0.113,1.074-0.207,1.64-0.245v-9.741c-0.565-0.038-1.149-0.132-1.64-0.245
		v-1.244h5.313v1.244c-0.49,0.113-1.074,0.208-1.64,0.245v9.741c0.565,0.038,1.149,0.132,1.64,0.245v1.244H177.882z"/>
	<path fill="#00507E" d="M189.28,71.262c0.245,0.735,0.547,1.639,0.792,2.581h0.037c0.208-0.885,0.452-1.677,0.811-2.713
		l2.204-6.236c-0.471-0.038-0.979-0.132-1.413-0.226v-1.244h4.598v1.263c-0.302,0.075-0.735,0.15-1.074,0.188l-4.032,11.267h-2.354
		l-3.957-11.267c-0.339-0.038-0.772-0.113-1.074-0.188v-1.263h4.748v1.244c-0.433,0.094-0.961,0.188-1.432,0.226L189.28,71.262z"/>
	<path fill="#00507E" d="M196.93,76.142v-1.244c0.49-0.113,1.074-0.207,1.64-0.245v-9.741c-0.565-0.038-1.149-0.132-1.64-0.245
		v-1.244h8.422v3.052h-1.488c-0.094-0.527-0.188-1.036-0.227-1.432h-3.033v3.806h2.431c0.057-0.415,0.132-0.81,0.245-1.168h1.281
		v3.843h-1.281c-0.113-0.358-0.207-0.791-0.245-1.168h-2.431v4.126h3.053c0.037-0.452,0.132-0.96,0.245-1.507h1.488v3.165H196.93z"
		/>
	<path fill="#00507E" d="M214.414,76.142l-3.448-5.501h-0.32v4.013c0.434,0.038,0.886,0.113,1.301,0.226v1.262h-4.975v-1.244
		c0.49-0.113,1.074-0.207,1.64-0.245v-9.741c-0.565-0.038-1.149-0.132-1.64-0.245v-1.244h1.47c0.49,0,2.016-0.075,3.561-0.075
		c2.638,0,4.447,0.923,4.447,3.448c0,1.922-1.395,3.184-3.354,3.486c0.264,0.32,0.528,0.697,0.754,1.055l2.204,3.297
		c0.396,0.057,0.867,0.132,1.356,0.226v1.281H214.414z M211.72,65.025c-0.396,0-0.772,0.019-1.074,0.038v4.032
		c0.188,0.019,0.547,0.038,0.999,0.038c1.658,0,2.656-0.848,2.656-2.11C214.301,65.628,213.435,65.025,211.72,65.025z"/>
	<path fill="#00507E" d="M225.115,76.142v-1.262c0.34-0.076,0.717-0.151,1.074-0.188l-4.258-4.898v4.861
		c0.414,0.038,0.923,0.113,1.338,0.226v1.262h-5.012v-1.244c0.489-0.113,1.073-0.207,1.639-0.245v-9.741
		c-0.565-0.038-1.149-0.132-1.639-0.245v-1.244h5.012v1.263c-0.415,0.113-0.924,0.188-1.338,0.226v4.56l4.201-4.597
		c-0.377-0.019-0.81-0.094-1.149-0.188v-1.263h4.918v1.244c-0.396,0.094-0.867,0.169-1.263,0.226l-4.371,4.635l4.654,5.144
		c0.396,0.038,0.866,0.132,1.262,0.226v1.244H225.115z"/>
	<path fill="#00507E" d="M231.05,76.142v-1.244c0.49-0.113,1.074-0.207,1.64-0.245v-9.741c-0.565-0.038-1.149-0.132-1.64-0.245
		v-1.244h8.422v3.052h-1.488c-0.094-0.527-0.188-1.036-0.226-1.432h-3.033v3.806h2.43c0.057-0.415,0.132-0.81,0.245-1.168h1.281
		v3.843h-1.281c-0.113-0.358-0.207-0.791-0.245-1.168h-2.43v4.126h3.052c0.038-0.452,0.132-0.96,0.245-1.507h1.488v3.165H231.05z"/>
	<path fill="#00507E" d="M241.092,76.142v-1.244c0.49-0.113,1.074-0.207,1.64-0.245v-9.741c-0.565-0.038-1.149-0.132-1.64-0.245
		v-1.244h8.422v3.052h-1.488c-0.094-0.527-0.188-1.036-0.226-1.432h-3.033v3.806h2.43c0.057-0.415,0.132-0.81,0.245-1.168h1.281
		v3.843h-1.281c-0.113-0.358-0.207-0.791-0.245-1.168h-2.43v4.126h3.052c0.038-0.452,0.132-0.96,0.245-1.507h1.488v3.165H241.092z"
		/>
	<path fill="#00507E" d="M255.75,71.488c-0.282,0-0.621,0-0.941-0.038v3.203c0.564,0.038,1.148,0.132,1.639,0.245v1.244h-5.313
		v-1.244c0.49-0.113,1.074-0.207,1.64-0.245v-9.741c-0.565-0.038-1.149-0.132-1.64-0.245v-1.244h1.433
		c0.603,0,2.166-0.075,3.447-0.075c3.015,0,4.673,1.47,4.673,3.825C260.687,69.642,258.728,71.488,255.75,71.488z M255.863,65.025
		c-0.396,0-0.716,0-1.055,0.038v4.654c0.301,0.038,0.603,0.076,0.904,0.076c1.714-0.019,2.845-0.961,2.845-2.45
		C258.558,65.892,257.71,65.025,255.863,65.025z"/>
	<path fill="#00507E" d="M261.496,76.142v-1.244c0.49-0.113,1.074-0.207,1.64-0.245v-9.741c-0.565-0.038-1.149-0.132-1.64-0.245
		v-1.244h8.422v3.052h-1.488c-0.094-0.527-0.188-1.036-0.226-1.432h-3.033v3.806h2.43c0.057-0.415,0.132-0.81,0.245-1.168h1.281
		v3.843h-1.281c-0.113-0.358-0.207-0.791-0.245-1.168h-2.43v4.126h3.052c0.038-0.452,0.132-0.96,0.245-1.507h1.488v3.165H261.496z"
		/>
	<path fill="#00507E" d="M278.98,76.142l-3.447-5.501h-0.32v4.013c0.433,0.038,0.885,0.113,1.3,0.226v1.262h-4.975v-1.244
		c0.49-0.113,1.074-0.207,1.64-0.245v-9.741c-0.565-0.038-1.149-0.132-1.64-0.245v-1.244h1.47c0.49,0,2.017-0.075,3.562-0.075
		c2.638,0,4.446,0.923,4.446,3.448c0,1.922-1.395,3.184-3.354,3.486c0.264,0.32,0.527,0.697,0.753,1.055l2.205,3.297
		c0.396,0.057,0.866,0.132,1.356,0.226v1.281H278.98z M276.286,65.025c-0.396,0-0.772,0.019-1.073,0.038v4.032
		c0.188,0.019,0.546,0.038,0.998,0.038c1.658,0,2.656-0.848,2.656-2.11C278.867,65.628,278.001,65.025,276.286,65.025z"/>
	<path fill="#00507E" d="M285.812,67.7c-1.572,0-2.797-1.213-2.797-2.773c0-1.547,1.25-2.772,2.797-2.772
		c1.572,0,2.81,1.201,2.81,2.772C288.622,66.45,287.348,67.7,285.812,67.7z M285.812,62.934c-1.077,0-1.956,0.891-1.956,1.98
		c0,1.077,0.879,1.993,1.956,1.993c1.09,0,1.968-0.878,1.968-1.968S286.902,62.934,285.812,62.934z M286.246,66.301l-0.458-1.089
		h-0.186v0.607c0.086,0.012,0.186,0.049,0.271,0.099v0.384h-1.2v-0.384c0.099-0.037,0.235-0.086,0.31-0.099v-1.82
		c-0.074-0.025-0.211-0.049-0.31-0.086v-0.396h0.31c0.284,0,0.644-0.024,0.903-0.024c0.693,0,1.04,0.285,1.04,0.78
		c0,0.384-0.211,0.668-0.532,0.78c0.074,0.099,0.148,0.223,0.173,0.297l0.211,0.471c0.099,0.024,0.198,0.062,0.272,0.099v0.384
		H286.246z M285.862,64.023c-0.013-0.013-0.248,0-0.26,0.012v0.681c0.012,0,0.173,0.013,0.186,0.013
		c0.347,0.012,0.47-0.198,0.47-0.384C286.258,64.135,286.146,64.023,285.862,64.023z"/>
</g>
<g>
	<path fill="#00507E" d="M97.883,95.172c-0.964,0-1.91-0.108-2.692-0.31v-3.074h1.455c0.091,0.564,0.182,1.092,0.218,1.547
		c0.327,0.072,0.746,0.127,1.091,0.127c1.401,0,2.492-0.563,2.492-1.892c0-2.583-5.475-1.455-5.475-5.456
		c0-2.111,1.637-3.584,4.457-3.584c0.873,0,1.637,0.091,2.456,0.254v2.966h-1.456c-0.109-0.528-0.182-1.056-0.218-1.491
		c-0.2-0.037-0.563-0.092-0.854-0.092c-1.546,0-2.311,0.709-2.311,1.729c0,2.455,5.494,1.546,5.494,5.384
		C102.54,93.535,100.757,95.172,97.883,95.172z"/>
	<path fill="#00507E" d="M103.795,94.99v-1.2c0.473-0.109,1.037-0.2,1.583-0.236v-9.404c-0.546-0.037-1.11-0.128-1.583-0.236v-1.201
		h8.131v2.947h-1.437c-0.091-0.51-0.182-1.001-0.218-1.383h-2.929v3.674h2.347c0.054-0.399,0.127-0.781,0.236-1.127h1.237v3.711
		h-1.237c-0.109-0.346-0.2-0.765-0.236-1.129h-2.347v3.984h2.947c0.037-0.437,0.127-0.928,0.236-1.455h1.437v3.056H103.795z"/>
	<path fill="#00507E" d="M125.095,84.149V94.99h-2.564l-4.293-6.985c-0.564-0.909-0.982-1.782-1.364-2.582
		c0.127,2,0.109,4.965,0.109,8.131c0.473,0.036,0.964,0.109,1.401,0.218v1.219h-4.893v-1.2c0.473-0.109,1.037-0.2,1.583-0.236
		v-9.404c-0.546-0.037-1.11-0.128-1.583-0.236v-1.201h4.166l4.238,6.931c0.545,0.892,0.946,1.673,1.4,2.564
		c-0.127-1.964-0.127-4.911-0.127-8.058c-0.455-0.037-0.927-0.109-1.328-0.219v-1.219h4.475v1.219
		C125.932,84.021,125.513,84.112,125.095,84.149z"/>
	<path fill="#00507E" d="M136.863,85.95h-1.418c-0.109-0.637-0.218-1.164-0.255-1.619h-2.219v9.223
		c0.546,0.036,1.11,0.127,1.583,0.236v1.2h-5.147v-1.2c0.473-0.109,1.037-0.2,1.583-0.236v-9.223h-2.237
		c-0.037,0.455-0.127,0.982-0.237,1.619h-1.418v-3.238h9.768V85.95z"/>
	<path fill="#00507E" d="M137.664,94.99v-1.2c0.473-0.109,1.037-0.2,1.583-0.236v-9.404c-0.545-0.037-1.109-0.128-1.583-0.236
		v-1.201h5.129v1.201c-0.473,0.108-1.036,0.199-1.582,0.236v9.404c0.546,0.036,1.109,0.127,1.582,0.236v1.2H137.664z"/>
	<path fill="#00507E" d="M155.344,84.149V94.99h-2.564l-4.293-6.985c-0.563-0.909-0.982-1.782-1.364-2.582
		c0.128,2,0.109,4.965,0.109,8.131c0.473,0.036,0.964,0.109,1.4,0.218v1.219h-4.893v-1.2c0.473-0.109,1.036-0.2,1.582-0.236v-9.404
		c-0.546-0.037-1.109-0.128-1.582-0.236v-1.201h4.165l4.238,6.931c0.546,0.892,0.946,1.673,1.4,2.564
		c-0.127-1.964-0.127-4.911-0.127-8.058c-0.455-0.037-0.928-0.109-1.328-0.219v-1.219h4.475v1.219
		C156.181,84.021,155.763,84.112,155.344,84.149z"/>
	<path fill="#00507E" d="M157.49,94.99v-1.2c0.473-0.109,1.037-0.2,1.583-0.236v-9.404c-0.546-0.037-1.11-0.128-1.583-0.236v-1.201
		h8.131v2.947h-1.437c-0.091-0.51-0.183-1.001-0.219-1.383h-2.929v3.674h2.347c0.055-0.399,0.128-0.781,0.236-1.127h1.237v3.711
		h-1.237c-0.108-0.346-0.2-0.765-0.236-1.129h-2.347v3.984h2.947c0.036-0.437,0.127-0.928,0.236-1.455h1.437v3.056H157.49z"/>
	<path fill="#00507E" d="M167.186,94.99v-1.2c0.473-0.109,1.036-0.2,1.582-0.236v-9.404c-0.546-0.037-1.109-0.128-1.582-0.236
		v-1.201h5.129v1.201c-0.473,0.108-1.036,0.199-1.582,0.236v9.203h2.783c0.055-0.454,0.146-1.018,0.255-1.582h1.418v3.22H167.186z"
		/>
	<path fill="#00507E" d="M175.898,94.99v-1.2c0.473-0.109,1.036-0.2,1.582-0.236v-9.404c-0.546-0.037-1.109-0.128-1.582-0.236
		v-1.201h5.129v1.201c-0.473,0.108-1.037,0.199-1.582,0.236v9.203h2.783c0.054-0.454,0.146-1.018,0.254-1.582h1.419v3.22H175.898z"
		/>
	<path fill="#00507E" d="M184.61,94.99v-1.2c0.474-0.109,1.037-0.2,1.583-0.236v-9.404c-0.546-0.037-1.109-0.128-1.583-0.236v-1.201
		h8.131v2.947h-1.437c-0.091-0.51-0.182-1.001-0.219-1.383h-2.929v3.674h2.347c0.055-0.399,0.128-0.781,0.236-1.127h1.237v3.711
		h-1.237c-0.108-0.346-0.199-0.765-0.236-1.129h-2.347v3.984h2.947c0.036-0.437,0.127-0.928,0.236-1.455h1.438v3.056H184.61z"/>
</g>
</svg>
