<?xml version="1.0" encoding="utf-8"?>
<!-- Generator: Adobe Illustrator 18.1.1, SVG Export Plug-In . SVG Version: 6.00 Build 0)  -->
<!DOCTYPE svg PUBLIC "-//W3C//DTD SVG 1.1//EN" "http://www.w3.org/Graphics/SVG/1.1/DTD/svg11.dtd">
<svg version="1.1" id="Layer_2" xmlns="http://www.w3.org/2000/svg" xmlns:xlink="http://www.w3.org/1999/xlink" x="0px" y="0px"
	 viewBox="0 0 200 50" enable-background="new 0 0 200 50" xml:space="preserve">
<g>
	<g>
		<path fill="#FFFFFF" d="M41.2,15.1c-0.8,0.5-1.7,0.8-2.7,1c-0.8-0.8-1.9-1.3-3.1-1.3c-2.3,0-4.2,1.8-4.2,4.1c0,0.3,0,0.6,0.1,0.9
			c-3.5-0.2-6.6-1.8-8.6-4.3c-0.4,0.6-0.6,1.3-0.6,2.1c0,1.4,0.7,2.7,1.9,3.4c-0.7,0-1.3-0.2-1.9-0.5c0,0,0,0,0,0.1
			c0,2,1.4,3.7,3.4,4c-0.4,0.1-0.7,0.1-1.1,0.1c-0.3,0-0.5,0-0.8-0.1c0.5,1.6,2.1,2.8,3.9,2.9c-1.4,1.1-3.2,1.8-5.2,1.8
			c-0.3,0-0.7,0-1-0.1c1.9,1.2,4.1,1.9,6.4,1.9c7.7,0,11.9-6.3,11.9-11.7c0-0.2,0-0.4,0-0.5c0.8-0.6,1.5-1.3,2.1-2.1
			c-0.8,0.3-1.6,0.5-2.4,0.6C40.2,16.9,40.8,16.1,41.2,15.1z"/>
	</g>
	<text transform="matrix(1 0 0 1 67.0235 31.067)" fill="#FFFFFF" font-family="'Cabin-Regular'" font-size="16.4884">Tweet to Twitter</text>
</g>
</svg>
